<?xml version="1.0" encoding="utf-8"?>
<!-- Generator: Adobe Illustrator 28.2.0, SVG Export Plug-In . SVG Version: 6.00 Build 0)  -->
<svg version="1.1" id="Layer_1" xmlns="http://www.w3.org/2000/svg" xmlns:xlink="http://www.w3.org/1999/xlink" x="0px" y="0px"
	 viewBox="0 0 1297.2 251.6" style="enable-background:new 0 0 1297.2 251.6;" xml:space="preserve">
<style type="text/css">
	.st0{fill:#D6E2F4;}
	.st1{fill:#2C3691;}
	.st2{fill:none;stroke:#000000;stroke-width:6.0677;stroke-miterlimit:10;}
	.st3{fill:#81ACEA;}
	.st4{fill:#FF0C00;}
</style>
<g>
	
		<text transform="matrix(1 0 0 1 389.7847 1016.3599)" style="fill:#FFFFFF; font-family:'Metropolis-Medium'; font-size:46.0614px; letter-spacing:-1;">0495 2989800 | 8129523694</text>
</g>
<g>
	<text transform="matrix(1 0 0 1 355.355 958.5347)" style="fill:#FFFFFF; font-family:'Metropolis-ExtraBold'; font-size:30.4px;">Odumbra, Olavanna, Kozhikode, Kerala 673019</text>
</g>
<g>
	<path class="st0" d="M208.3,70.9c0,0,31.9,126.6-83.1,162.8c0,0-93.1-15.5-85.6-159.6L27.3,59.7c0,0,9.6-8,11.8-29.1
		c0,0,48.5,31.6,84.7-10.5c0,0,38.7,37.6,87.7,11.4c0,0-1.2,12.8,11.9,26.2L208.3,70.9z"/>
	<polygon class="st1" points="66.7,188.7 124.5,53 186.2,191.6 124.3,99.5 	"/>
	<path class="st2" d="M208.3,70.9c0,0,31.9,126.6-83.1,162.8c0,0-93.1-15.5-85.6-159.6L27.3,59.7c0,0,9.6-8,11.8-29.1
		c0,0,48.5,31.6,84.7-10.5c0,0,38.7,37.6,87.7,11.4c0,0-1.2,12.8,11.9,26.2L208.3,70.9z"/>
	<path class="st3" d="M129.7,32.2l-5.1-5.6v9.3c1.8,0.2,3.1,1.4,3.1,3.2c0,1.8-1.4,3.2-3.2,3.2c-1.9,0-3.4-1.4-3.4-3.2
		c0-1.6,1.3-3.1,3.1-3.1v-9.7l-5.1,6l-5.3,5.8l10.6,15.3L135,38L129.7,32.2z"/>
	<g>
		<g>
			<path d="M140,137.2c1.1,9.3,2.2,18.5,3.3,27.8c-0.9,0-1.8,0-2.8,0c0,0.2,0,0.4,0,0.5c0,5.1,0,10.2,0,15.3c0,1-0.5,1.8-1.4,2.1
				c-1.3,0.5-2.8-0.4-2.9-1.9c0-0.2,0-0.5,0-0.7c0-4.9,0-9.9,0-14.8c0-0.2,0-0.3,0-0.5c-0.6,0-1.2,0-1.8,0c0,0.2,0,0.3,0,0.5
				c0,5.1,0,10.3,0,15.4c0,1.5-1.4,2.5-2.8,2.1c-0.8-0.3-1.4-1-1.4-1.8c0-0.2,0-0.3,0-0.5c0-5,0-10.1,0-15.1c0-0.2,0-0.3,0-0.5
				c-0.9,0-1.8,0-2.8,0c1.1-9.3,2.1-18.5,3.2-27.7c0,0-0.1,0-0.1,0c0,0.2-0.1,0.4-0.1,0.5c-1.1,6.5-2.2,13-3.3,19.5
				c-0.2,1-0.8,1.7-1.7,1.7c-1.2,0-2-0.9-1.8-2.1c0.1-0.7,0.3-1.5,0.4-2.2c0.8-4.5,1.5-9,2.3-13.6c0.2-1.4,0.5-2.9,0.7-4.3
				c0.3-1.5,1.1-2.4,2.5-2.9c1-0.4,2.1-0.5,3.1-0.6c2.1-0.1,4.2-0.1,6.4,0.1c0.6,0.1,1.2,0.2,1.8,0.4c1.6,0.4,2.5,1.5,2.7,3.1
				c0.9,5.2,1.7,10.4,2.6,15.6c0.3,1.5,0.5,3,0.8,4.5c0.2,1.1-0.4,2-1.4,2.2c-1,0.2-1.9-0.4-2.1-1.5c-0.6-3.3-1.1-6.7-1.7-10
				c-0.6-3.3-1.1-6.6-1.7-10c0-0.1-0.1-0.2-0.1-0.3C140,137.2,140,137.2,140,137.2z"/>
			<path d="M130.1,126.7c0-2.9,2.3-5.3,5.3-5.3c2.9,0,5.2,2.3,5.2,5.3c0,2.9-2.3,5.2-5.3,5.2C132.5,131.9,130.1,129.6,130.1,126.7z"
				/>
		</g>
		<g>
			<path d="M111.5,183c-1.3-0.5-1.6-1.4-1.6-2.7c0.2-5.8,0.4-11.5,0.6-17.3c0.1-3,0.3-6,0.3-9c0-2.6-0.1-5.3-0.2-7.9
				c0-0.7,0-1.4-0.1-2.1c0-0.3-0.1-0.5-0.2-0.8c-0.2,2.1-0.4,4.3-0.6,6.4c-0.2,2.2-0.4,4.3-0.6,6.5c-0.1,1-1,1.7-1.9,1.6
				c-1-0.1-1.6-0.9-1.5-2c0.4-4.4,0.8-8.8,1.3-13.2c0.1-0.9,0.2-1.8,0.4-2.7c0.4-2.4,1.9-3.9,4.1-4.7c2.4-0.8,4.8-0.6,7.2-0.4
				c1.4,0.1,2.7,0.6,3.8,1.5c1.2,1,2,2.2,2.2,3.7c0.4,3.1,0.7,6.1,1,9.2c0.2,2.2,0.4,4.4,0.6,6.7c0.1,0.9-0.3,1.6-1,1.8
				c-1,0.4-2.2-0.2-2.3-1.4c-0.2-1.3-0.2-2.5-0.4-3.8c-0.3-3.1-0.6-6.1-1-9.2c0,0.2-0.1,0.5-0.1,0.7c-0.1,2.9-0.3,5.9-0.3,8.8
				c0,3.1,0.2,6.3,0.3,9.4c0.1,3.2,0.2,6.3,0.3,9.5c0.1,2.9,0.2,5.8,0.3,8.6c0.1,1.3-0.3,2.2-1.6,2.7c-0.3,0-0.6,0-0.9,0
				c-1.2-0.4-1.6-1.3-1.6-2.5c0-0.5-0.1-1-0.1-1.4c-0.6-6-1.2-12.1-1.8-18.1c-0.1-0.7-0.2-1.3-0.2-2c-0.1,0.1-0.1,0.2-0.1,0.3
				c-0.3,3.3-0.6,6.7-1,10c-0.4,3.7-0.8,7.5-1.1,11.2c-0.1,1.2-0.5,2.1-1.6,2.5C112.1,183,111.8,183,111.5,183z"/>
			<path d="M116.7,123.2c1.1,0.2,2.1,0.6,2.9,1.4c2.5,2.2,1.9,6.6-1.1,8.1c-2,1-4.8,0.7-6.4-1.3c-2.1-2.6-1.1-6.6,2.2-7.8
				c0.4-0.2,0.8-0.2,1.2-0.4C116,123.2,116.4,123.2,116.7,123.2z"/>
		</g>
	</g>
	<g>
		<path class="st4" d="M112.2,193.7l3-8.1h2.4l3,8.1h-1.9l-2.2-6.4h-0.1l-2.2,6.4H112.2z M113.9,192.1v-1.6h4.9v1.6H113.9z"/>
		<path class="st4" d="M121.2,196.1v-8.3h1.7v0.9h0.1c0.2-0.3,0.4-0.6,0.8-0.8c0.3-0.2,0.7-0.3,1.1-0.3c0.5,0,1,0.1,1.5,0.4
			s0.8,0.6,1,1.1c0.2,0.5,0.4,1,0.4,1.6s-0.1,1.1-0.4,1.6c-0.2,0.5-0.6,0.8-1,1.1c-0.4,0.3-0.9,0.4-1.5,0.4c-0.4,0-0.8-0.1-1.1-0.3
			s-0.6-0.4-0.8-0.8h-0.1v3.2H121.2z M124.4,192.4c0.3,0,0.6-0.1,0.8-0.2c0.2-0.1,0.4-0.3,0.5-0.6c0.1-0.2,0.2-0.5,0.2-0.8
			c0-0.5-0.1-0.9-0.4-1.1c-0.3-0.3-0.6-0.4-1.1-0.4c-0.3,0-0.6,0.1-0.8,0.2c-0.2,0.1-0.4,0.3-0.5,0.6c-0.1,0.2-0.2,0.5-0.2,0.8
			c0,0.5,0.1,0.9,0.4,1.2C123.6,192.2,124,192.4,124.4,192.4z"/>
		<path class="st4" d="M131.5,193.9c-0.6,0-1.2-0.1-1.6-0.4c-0.5-0.3-0.9-0.6-1.1-1.1c-0.3-0.5-0.4-1-0.4-1.6s0.1-1.1,0.4-1.6
			c0.3-0.5,0.6-0.8,1.1-1.1c0.5-0.3,1-0.4,1.6-0.4c0.7,0,1.2,0.2,1.7,0.5s0.9,0.7,1.1,1.3c0.2,0.5,0.3,1.1,0.2,1.8h-5.3v-1.1h4.3
			l-0.6,0.6c0-0.3-0.1-0.6-0.2-0.9s-0.3-0.4-0.5-0.6c-0.2-0.1-0.5-0.2-0.8-0.2c-0.3,0-0.6,0.1-0.8,0.2c-0.2,0.1-0.4,0.3-0.5,0.6
			s-0.2,0.6-0.2,0.9c0,0.5,0.1,1,0.4,1.3c0.3,0.3,0.6,0.5,1.1,0.5c0.3,0,0.6-0.1,0.8-0.2s0.4-0.3,0.4-0.5h1.7
			c-0.1,0.4-0.2,0.8-0.5,1.1c-0.3,0.3-0.6,0.6-1,0.8C132.5,193.8,132,193.9,131.5,193.9z"/>
		<path class="st4" d="M134.7,193.7l1.8-3l-1.7-2.9h1.9l1,1.9h0.1l1-1.9h1.9l-1.7,2.9l1.8,3h-2l-1-2h-0.1l-1.1,2H134.7z"/>
		<path class="st4" d="M91.9,205.5v-8.1h1.8v8.1H91.9z"/>
		<path class="st4" d="M94.9,205.5v-5.9h1.7v0.8h0.1c0.2-0.3,0.4-0.6,0.7-0.7s0.6-0.2,1-0.2c0.4,0,0.8,0.1,1.1,0.3
			c0.3,0.2,0.5,0.4,0.7,0.8c0.2,0.3,0.2,0.7,0.2,1.2v3.8h-1.7v-3.4c0-0.4-0.1-0.7-0.3-0.9S98,201,97.7,201c-0.3,0-0.6,0.1-0.8,0.3
			s-0.3,0.5-0.3,0.9v3.4H94.9z"/>
		<path class="st4" d="M101,201.1v-1.5h4.2v1.5H101z M103.9,205.5c-0.4,0-0.8-0.1-1-0.2c-0.3-0.1-0.4-0.3-0.6-0.6
			c-0.1-0.3-0.2-0.6-0.2-1v-6h1.7v5.8c0,0.2,0,0.3,0.1,0.4c0.1,0.1,0.2,0.1,0.4,0.1h0.9v1.5H103.9z"/>
		<path class="st4" d="M109,205.7c-0.6,0-1.2-0.1-1.6-0.4c-0.5-0.3-0.9-0.6-1.1-1.1c-0.3-0.5-0.4-1-0.4-1.6s0.1-1.1,0.4-1.6
			c0.3-0.5,0.6-0.8,1.1-1.1c0.5-0.3,1-0.4,1.6-0.4c0.7,0,1.2,0.2,1.7,0.5s0.9,0.7,1.1,1.3c0.2,0.5,0.3,1.1,0.2,1.8h-5.3v-1.1h4.3
			l-0.6,0.6c0-0.3-0.1-0.6-0.2-0.9s-0.3-0.4-0.5-0.6c-0.2-0.1-0.5-0.2-0.8-0.2c-0.3,0-0.6,0.1-0.8,0.2c-0.2,0.1-0.4,0.3-0.5,0.6
			s-0.2,0.6-0.2,0.9c0,0.5,0.1,1,0.4,1.3c0.3,0.3,0.6,0.5,1.1,0.5c0.3,0,0.6-0.1,0.8-0.2s0.4-0.3,0.4-0.5h1.7
			c-0.1,0.4-0.2,0.8-0.5,1.1c-0.3,0.3-0.6,0.6-1,0.8C110,205.6,109.5,205.7,109,205.7z"/>
		<path class="st4" d="M112.8,205.5v-5.9h1.7v1h0.1c0.1-0.4,0.3-0.7,0.5-0.9s0.6-0.2,1-0.2h0.2v1.7h-0.8c-0.3,0-0.6,0.1-0.8,0.3
			c-0.2,0.2-0.2,0.5-0.2,0.9v3.1H112.8z"/>
		<path class="st4" d="M116.9,205.5v-5.9h1.7v0.8h0.1c0.2-0.3,0.4-0.6,0.7-0.7s0.6-0.2,1-0.2c0.4,0,0.8,0.1,1.1,0.3
			c0.3,0.2,0.5,0.4,0.7,0.8c0.2,0.3,0.2,0.7,0.2,1.2v3.8h-1.7v-3.4c0-0.4-0.1-0.7-0.3-0.9s-0.5-0.3-0.8-0.3c-0.3,0-0.6,0.1-0.8,0.3
			s-0.3,0.5-0.3,0.9v3.4H116.9z"/>
		<path class="st4" d="M126.1,205.7c-0.5,0-1-0.1-1.5-0.4c-0.4-0.3-0.8-0.6-1-1.1c-0.2-0.5-0.4-1-0.4-1.6c0-0.6,0.1-1.1,0.4-1.6
			c0.2-0.5,0.6-0.8,1-1.1c0.4-0.3,0.9-0.4,1.5-0.4c0.4,0,0.8,0.1,1.1,0.3c0.3,0.2,0.6,0.4,0.8,0.8h0.1v-0.9h1.7v5.9h-1.7v-0.9H128
			c-0.2,0.3-0.4,0.6-0.8,0.8C126.9,205.6,126.5,205.7,126.1,205.7z M126.6,204.2c0.3,0,0.6-0.1,0.8-0.2c0.2-0.1,0.4-0.3,0.5-0.6
			s0.2-0.5,0.2-0.8c0-0.5-0.1-0.9-0.4-1.1c-0.3-0.3-0.6-0.4-1.1-0.4c-0.3,0-0.6,0.1-0.8,0.2c-0.2,0.1-0.4,0.3-0.5,0.6
			c-0.1,0.2-0.2,0.5-0.2,0.8c0,0.5,0.1,0.9,0.4,1.2S126.2,204.2,126.6,204.2z"/>
		<path class="st4" d="M130.5,201.1v-1.5h4.2v1.5H130.5z M133.3,205.5c-0.4,0-0.8-0.1-1-0.2c-0.3-0.1-0.4-0.3-0.6-0.6
			c-0.1-0.3-0.2-0.6-0.2-1v-6h1.7v5.8c0,0.2,0,0.3,0.1,0.4c0.1,0.1,0.2,0.1,0.4,0.1h0.9v1.5H133.3z"/>
		<path class="st4" d="M135.5,198.9v-1.5h1.7v1.5H135.5z M135.5,205.5v-5.9h1.7v5.9H135.5z"/>
		<path class="st4" d="M141.3,205.7c-0.6,0-1.2-0.1-1.7-0.4c-0.5-0.3-0.9-0.6-1.2-1.1c-0.3-0.5-0.4-1-0.4-1.6c0-0.6,0.1-1.1,0.4-1.6
			c0.3-0.5,0.7-0.8,1.2-1.1s1-0.4,1.7-0.4c0.6,0,1.2,0.1,1.7,0.4c0.5,0.3,0.9,0.6,1.2,1.1c0.3,0.5,0.4,1,0.4,1.6
			c0,0.6-0.1,1.1-0.4,1.6c-0.3,0.5-0.7,0.8-1.2,1.1C142.5,205.6,141.9,205.7,141.3,205.7z M141.3,204.1c0.3,0,0.5-0.1,0.8-0.2
			c0.2-0.1,0.4-0.3,0.5-0.5c0.1-0.2,0.2-0.5,0.2-0.8c0-0.5-0.1-0.8-0.4-1.1c-0.3-0.3-0.6-0.4-1-0.4c-0.3,0-0.5,0.1-0.8,0.2
			c-0.2,0.1-0.4,0.3-0.5,0.5c-0.1,0.2-0.2,0.5-0.2,0.8c0,0.5,0.1,0.8,0.4,1.1C140.5,204,140.9,204.1,141.3,204.1z"/>
		<path class="st4" d="M145.3,205.5v-5.9h1.7v0.8h0.1c0.2-0.3,0.4-0.6,0.7-0.7s0.6-0.2,1-0.2c0.4,0,0.8,0.1,1.1,0.3
			c0.3,0.2,0.5,0.4,0.7,0.8c0.2,0.3,0.2,0.7,0.2,1.2v3.8h-1.7v-3.4c0-0.4-0.1-0.7-0.3-0.9s-0.5-0.3-0.8-0.3c-0.3,0-0.6,0.1-0.8,0.3
			s-0.3,0.5-0.3,0.9v3.4H145.3z"/>
		<path class="st4" d="M154.5,205.7c-0.5,0-1-0.1-1.5-0.4c-0.4-0.3-0.8-0.6-1-1.1c-0.2-0.5-0.4-1-0.4-1.6c0-0.6,0.1-1.1,0.4-1.6
			c0.2-0.5,0.6-0.8,1-1.1c0.4-0.3,0.9-0.4,1.5-0.4c0.4,0,0.8,0.1,1.1,0.3c0.3,0.2,0.6,0.4,0.8,0.8h0.1v-0.9h1.7v5.9h-1.7v-0.9h-0.1
			c-0.2,0.3-0.4,0.6-0.8,0.8C155.3,205.6,154.9,205.7,154.5,205.7z M155,204.2c0.3,0,0.6-0.1,0.8-0.2c0.2-0.1,0.4-0.3,0.5-0.6
			s0.2-0.5,0.2-0.8c0-0.5-0.1-0.9-0.4-1.1c-0.3-0.3-0.6-0.4-1.1-0.4c-0.3,0-0.6,0.1-0.8,0.2c-0.2,0.1-0.4,0.3-0.5,0.6
			c-0.1,0.2-0.2,0.5-0.2,0.8c0,0.5,0.1,0.9,0.4,1.2S154.6,204.2,155,204.2z"/>
		<path class="st4" d="M159.4,205.5v-8.1h1.7v8.1H159.4z"/>
		<path class="st4" d="M111.4,217.5c-0.8,0-1.4-0.1-2-0.4c-0.6-0.3-1-0.6-1.3-1.1s-0.5-1-0.5-1.6h1.9c0,0.3,0.1,0.5,0.2,0.7
			c0.2,0.2,0.4,0.4,0.7,0.5s0.6,0.2,1,0.2c0.4,0,0.8-0.1,1-0.2c0.3-0.1,0.4-0.4,0.4-0.7c0-0.2-0.1-0.4-0.2-0.5
			c-0.1-0.1-0.3-0.2-0.5-0.3c-0.2-0.1-0.6-0.2-1-0.2c-0.8-0.1-1.4-0.3-1.9-0.5c-0.5-0.2-0.8-0.4-1-0.7s-0.3-0.7-0.3-1.2
			c0-0.5,0.1-1,0.4-1.3c0.3-0.4,0.6-0.7,1.1-0.9s1.1-0.3,1.7-0.3c0.7,0,1.3,0.1,1.8,0.4c0.5,0.2,0.9,0.6,1.2,1
			c0.3,0.4,0.4,0.9,0.4,1.5h-1.9c0-0.3-0.1-0.5-0.2-0.7c-0.1-0.2-0.3-0.3-0.6-0.4c-0.2-0.1-0.5-0.1-0.8-0.1c-0.4,0-0.7,0.1-1,0.2
			c-0.2,0.1-0.4,0.3-0.4,0.6c0,0.2,0.1,0.3,0.2,0.4s0.3,0.2,0.6,0.3c0.3,0.1,0.6,0.2,1.1,0.2c0.7,0.1,1.3,0.3,1.8,0.5
			c0.4,0.2,0.8,0.5,1,0.8c0.2,0.3,0.3,0.7,0.3,1.2c0,0.5-0.1,1-0.4,1.4c-0.3,0.4-0.7,0.7-1.2,0.9S112.1,217.5,111.4,217.5z"/>
		<path class="st4" d="M118.7,217.5c-0.6,0-1.2-0.1-1.6-0.4c-0.5-0.3-0.9-0.6-1.1-1.1c-0.3-0.5-0.4-1-0.4-1.6c0-0.6,0.1-1.1,0.4-1.6
			c0.3-0.5,0.7-0.8,1.1-1.1s1-0.4,1.7-0.4c0.6,0,1.1,0.1,1.6,0.3c0.5,0.2,0.8,0.5,1.1,1s0.4,0.9,0.5,1.4h-1.8c0-0.3-0.2-0.6-0.4-0.8
			c-0.2-0.2-0.6-0.3-0.9-0.3c-0.3,0-0.5,0.1-0.8,0.2s-0.4,0.3-0.5,0.6s-0.2,0.5-0.2,0.8c0,0.5,0.1,0.8,0.4,1.1
			c0.3,0.3,0.6,0.4,1,0.4c0.4,0,0.7-0.1,0.9-0.3c0.2-0.2,0.4-0.5,0.4-0.8h1.8c0,0.5-0.2,1-0.5,1.4s-0.6,0.7-1.1,1
			C119.8,217.4,119.3,217.5,118.7,217.5z"/>
		<path class="st4" d="M122.6,217.4v-8.1h1.7v3h0.1c0.2-0.3,0.4-0.6,0.7-0.7s0.6-0.2,1-0.2c0.4,0,0.8,0.1,1.1,0.3
			c0.3,0.2,0.5,0.4,0.7,0.8c0.2,0.3,0.2,0.7,0.2,1.2v3.8h-1.7V214c0-0.4-0.1-0.7-0.3-0.9s-0.5-0.3-0.8-0.3c-0.3,0-0.6,0.1-0.8,0.3
			c-0.2,0.2-0.3,0.5-0.3,0.9v3.4H122.6z"/>
		<path class="st4" d="M132.2,217.5c-0.6,0-1.2-0.1-1.7-0.4c-0.5-0.3-0.9-0.6-1.2-1.1c-0.3-0.5-0.4-1-0.4-1.6c0-0.6,0.1-1.1,0.4-1.6
			c0.3-0.5,0.7-0.8,1.2-1.1s1-0.4,1.7-0.4c0.6,0,1.2,0.1,1.7,0.4c0.5,0.3,0.9,0.6,1.2,1.1c0.3,0.5,0.4,1,0.4,1.6
			c0,0.6-0.1,1.1-0.4,1.6c-0.3,0.5-0.7,0.8-1.2,1.1C133.4,217.4,132.8,217.5,132.2,217.5z M132.2,215.9c0.3,0,0.5-0.1,0.8-0.2
			c0.2-0.1,0.4-0.3,0.5-0.5c0.1-0.2,0.2-0.5,0.2-0.8c0-0.5-0.1-0.8-0.4-1.1c-0.3-0.3-0.6-0.4-1-0.4c-0.3,0-0.5,0.1-0.8,0.2
			c-0.2,0.1-0.4,0.3-0.5,0.5c-0.1,0.2-0.2,0.5-0.2,0.8c0,0.5,0.1,0.8,0.4,1.1C131.4,215.8,131.7,215.9,132.2,215.9z"/>
		<path class="st4" d="M139.2,217.5c-0.6,0-1.2-0.1-1.7-0.4c-0.5-0.3-0.9-0.6-1.2-1.1c-0.3-0.5-0.4-1-0.4-1.6c0-0.6,0.1-1.1,0.4-1.6
			c0.3-0.5,0.7-0.8,1.2-1.1s1-0.4,1.7-0.4c0.6,0,1.2,0.1,1.7,0.4c0.5,0.3,0.9,0.6,1.2,1.1c0.3,0.5,0.4,1,0.4,1.6
			c0,0.6-0.1,1.1-0.4,1.6c-0.3,0.5-0.7,0.8-1.2,1.1C140.4,217.4,139.8,217.5,139.2,217.5z M139.2,215.9c0.3,0,0.5-0.1,0.8-0.2
			c0.2-0.1,0.4-0.3,0.5-0.5c0.1-0.2,0.2-0.5,0.2-0.8c0-0.5-0.1-0.8-0.4-1.1c-0.3-0.3-0.6-0.4-1-0.4c-0.3,0-0.5,0.1-0.8,0.2
			c-0.2,0.1-0.4,0.3-0.5,0.5c-0.1,0.2-0.2,0.5-0.2,0.8c0,0.5,0.1,0.8,0.4,1.1C138.4,215.8,138.7,215.9,139.2,215.9z"/>
		<path class="st4" d="M143.3,217.4v-8.1h1.7v8.1H143.3z"/>
	</g>
	<g>
		<path class="st1" d="M282.6,117.1l-4.4-12.8H260l-4.3,12.8h-9.2l17.8-48.6h9.9l17.8,48.6H282.6z M271.8,84.3
			c-0.2-0.6-0.5-1.5-0.8-2.6c-0.4-1.1-0.7-2.2-1.1-3.4c-0.3-1.2-0.6-2.1-0.8-2.9c-0.2,0.9-0.5,1.9-0.8,3.1c-0.3,1.2-0.7,2.3-0.9,3.3
			c-0.3,1-0.5,1.8-0.7,2.4l-4.3,12.5H276L271.8,84.3z"/>
		<path class="st1" d="M312.7,68.6c6.3,0,10.9,1.3,13.7,3.9c2.9,2.6,4.3,6.2,4.3,10.9c0,2.1-0.3,4.1-0.9,5.9
			c-0.6,1.9-1.7,3.6-3.2,5.1c-1.5,1.5-3.4,2.7-5.9,3.5c-2.4,0.9-5.4,1.3-9,1.3h-4.8v17.8h-8.7V68.6H312.7z M312.1,75.8h-5.2V92h3.9
			c2.4,0,4.4-0.3,6-0.8c1.6-0.6,2.9-1.5,3.8-2.7c0.9-1.2,1.3-2.8,1.3-4.7c0-2.7-0.8-4.7-2.4-6C317.9,76.5,315.5,75.8,312.1,75.8z"/>
		<path class="st1" d="M367.7,117.1h-27.5V68.6h27.5v7.3h-18.9v12.3h17.6v7.3h-17.6v14.2h18.9V117.1z"/>
		<path class="st1" d="M414.8,117.1h-9.9L393,97.7l-11.9,19.3h-9.2L387.9,92l-15.1-23.3h9.6l11,18l10.9-18h9.3l-15.1,23.7
			L414.8,117.1z"/>
		<path class="st1" d="M458.5,117.1h-20.3v-5l5.8-2.2V75.8l-5.8-2.2v-5h20.3v5l-5.8,2.2v34.1l5.8,2.2V117.1z"/>
		<path class="st1" d="M508.4,117.1h-10.8l-22.9-38h-0.3c0.1,1.4,0.2,2.8,0.2,4.3c0.1,1.5,0.1,3,0.2,4.6c0.1,1.6,0.1,3.1,0.2,4.7
			v24.4h-7.8V68.6h10.7l22.9,37.7h0.2c0-1.2-0.1-2.5-0.1-4c0-1.5-0.1-3-0.2-4.6c-0.1-1.6-0.1-3.1-0.2-4.5V68.6h7.9V117.1z"/>
		<path class="st1" d="M538.4,117.1h-8.7V76h-13.9v-7.3h36.5V76h-13.9V117.1z"/>
		<path class="st1" d="M587.2,117.1h-27.5V68.6h27.5v7.3h-18.9v12.3H586v7.3h-17.6v14.2h18.9V117.1z"/>
		<path class="st1" d="M611.3,68.6c4.2,0,7.8,0.5,10.5,1.6c2.8,1,4.8,2.6,6.2,4.7c1.4,2.1,2,4.8,2,8c0,2.4-0.4,4.4-1.3,6
			c-0.9,1.7-2,3.1-3.4,4.2c-1.4,1.1-2.9,2-4.5,2.7l13.9,21.3h-9.8l-11.6-19.1h-7.1v19.1h-8.7V68.6H611.3z M610.7,75.9h-4.5v14.9h4.8
			c3.6,0,6.2-0.6,7.8-1.9c1.6-1.3,2.4-3.2,2.4-5.7c0-1.8-0.4-3.2-1.2-4.2c-0.8-1.1-1.9-1.8-3.4-2.3
			C615.1,76.1,613.1,75.9,610.7,75.9z"/>
		<path class="st1" d="M682.5,117.1h-10.8l-22.9-38h-0.3c0.1,1.4,0.2,2.8,0.2,4.3c0.1,1.5,0.1,3,0.2,4.6c0.1,1.6,0.1,3.1,0.2,4.7
			v24.4h-7.8V68.6H652l22.9,37.7h0.2c0-1.2-0.1-2.5-0.1-4c0-1.5-0.1-3-0.2-4.6c-0.1-1.6-0.1-3.1-0.2-4.5V68.6h7.9V117.1z"/>
		<path class="st1" d="M725,117.1l-4.4-12.8h-18.2l-4.3,12.8h-9.2l17.8-48.6h9.9l17.8,48.6H725z M714.1,84.3
			c-0.2-0.6-0.5-1.5-0.8-2.6c-0.4-1.1-0.7-2.2-1.1-3.4c-0.3-1.2-0.6-2.1-0.8-2.9c-0.2,0.9-0.5,1.9-0.8,3.1c-0.3,1.2-0.7,2.3-0.9,3.3
			c-0.3,1-0.5,1.8-0.7,2.4l-4.3,12.5h13.6L714.1,84.3z"/>
		<path class="st1" d="M753.2,117.1h-8.7V76h-13.9v-7.3h36.5V76h-13.9V117.1z"/>
		<path class="st1" d="M790.9,117.1h-20.3v-5l5.8-2.2V75.8l-5.8-2.2v-5h20.3v5l-5.8,2.2v34.1l5.8,2.2V117.1z"/>
		<path class="st1" d="M842.9,92.8c0,3.8-0.5,7.2-1.4,10.2c-0.9,3.1-2.3,5.7-4.2,7.9c-1.9,2.2-4.2,3.9-7.1,5.1
			c-2.9,1.2-6.2,1.8-10.1,1.8c-3.9,0-7.3-0.6-10.1-1.8c-2.9-1.2-5.2-2.9-7.1-5.1c-1.9-2.2-3.2-4.8-4.2-7.9
			c-0.9-3.1-1.4-6.5-1.4-10.2c0-5,0.8-9.4,2.5-13.1c1.7-3.7,4.2-6.6,7.5-8.6c3.4-2.1,7.7-3.1,12.9-3.1c5.1,0,9.3,1,12.7,3.1
			c3.3,2.1,5.9,5,7.5,8.7C842,83.4,842.9,87.8,842.9,92.8z M806.4,92.8c0,3.7,0.5,6.8,1.5,9.4c1,2.6,2.5,4.6,4.5,6
			c2,1.4,4.6,2.1,7.7,2.1c3.2,0,5.8-0.7,7.8-2.1c2-1.4,3.5-3.4,4.4-6c0.9-2.6,1.4-5.8,1.4-9.4c0-5.5-1.1-9.8-3.2-12.9
			c-2.1-3.1-5.6-4.7-10.4-4.7c-3.2,0-5.8,0.7-7.8,2.1c-2,1.4-3.5,3.4-4.5,6C806.9,86,806.4,89.1,806.4,92.8z"/>
		<path class="st1" d="M894.3,117.1h-10.8l-22.9-38h-0.3c0.1,1.4,0.2,2.8,0.2,4.3c0.1,1.5,0.1,3,0.2,4.6c0.1,1.6,0.1,3.1,0.2,4.7
			v24.4h-7.8V68.6h10.7l22.9,37.7h0.2c0-1.2-0.1-2.5-0.1-4c0-1.5-0.1-3-0.2-4.6c-0.1-1.6-0.1-3.1-0.2-4.5V68.6h7.9V117.1z"/>
		<path class="st1" d="M936.9,117.1l-4.4-12.8h-18.2l-4.3,12.8h-9.2l17.8-48.6h9.9l17.8,48.6H936.9z M926,84.3
			c-0.2-0.6-0.5-1.5-0.8-2.6c-0.4-1.1-0.7-2.2-1.1-3.4c-0.3-1.2-0.6-2.1-0.8-2.9c-0.2,0.9-0.5,1.9-0.8,3.1c-0.3,1.2-0.7,2.3-0.9,3.3
			c-0.3,1-0.5,1.8-0.7,2.4l-4.3,12.5h13.6L926,84.3z"/>
		<path class="st1" d="M952.5,117.1V68.6h8.7v41.1h20.2v7.3H952.5z"/>
		<path class="st1" d="M1038.9,103.8c0,2.8-0.7,5.3-2.1,7.4c-1.4,2.1-3.4,3.7-6.1,4.8c-2.6,1.1-5.8,1.7-9.5,1.7
			c-1.8,0-3.4-0.1-5.1-0.3c-1.6-0.2-3.1-0.5-4.5-0.9c-1.4-0.4-2.7-0.9-4-1.5v-8.1c2,0.9,4.3,1.7,6.7,2.5c2.4,0.7,4.9,1.1,7.5,1.1
			c1.9,0,3.5-0.3,4.8-0.8c1.2-0.5,2.2-1.2,2.7-2.2c0.6-0.9,0.9-2,0.9-3.2c0-1.4-0.4-2.5-1.2-3.5c-0.8-0.9-1.9-1.8-3.4-2.6
			c-1.5-0.8-3.3-1.7-5.6-2.6c-1.5-0.6-3-1.3-4.4-2.1c-1.4-0.8-2.7-1.8-3.8-2.9c-1.1-1.1-2-2.5-2.7-4c-0.7-1.5-1-3.3-1-5.4
			c0-2.8,0.7-5.1,2-7.1c1.3-2,3.2-3.5,5.6-4.5c2.4-1,5.2-1.6,8.4-1.6c2.6,0,5,0.3,7.3,0.8c2.3,0.5,4.5,1.3,6.7,2.3l-2.8,7
			c-2-0.9-3.9-1.5-5.8-2c-1.9-0.5-3.8-0.7-5.7-0.7c-1.5,0-2.8,0.2-3.9,0.7c-1.1,0.5-1.9,1.1-2.4,2c-0.5,0.9-0.8,1.9-0.8,3
			c0,1.3,0.3,2.4,1,3.3c0.7,0.9,1.7,1.8,3.2,2.5c1.4,0.8,3.3,1.7,5.5,2.7c2.6,1.1,4.8,2.3,6.6,3.5c1.8,1.2,3.2,2.7,4.2,4.4
			C1038.4,99.2,1038.9,101.3,1038.9,103.8z"/>
		<path class="st1" d="M1068.6,75.3c-2.2,0-4.2,0.4-5.9,1.2c-1.7,0.8-3.2,2-4.4,3.5c-1.2,1.5-2.1,3.4-2.7,5.6
			c-0.6,2.2-0.9,4.6-0.9,7.3c0,3.7,0.5,6.8,1.5,9.4c1,2.6,2.5,4.6,4.6,6c2.1,1.4,4.6,2.1,7.8,2.1c2.1,0,4.1-0.2,6-0.6
			c1.9-0.4,3.9-1,6.1-1.7v7.4c-2,0.8-4,1.4-6,1.8c-2,0.4-4.3,0.5-7,0.5c-5,0-9.1-1-12.3-3.1c-3.3-2.1-5.7-5-7.3-8.7
			c-1.6-3.7-2.4-8.1-2.4-13.1c0-3.7,0.5-7,1.5-10c1-3,2.5-5.7,4.4-7.9c1.9-2.2,4.3-3.9,7.2-5.2c2.8-1.2,6.1-1.8,9.8-1.8
			c2.4,0,4.8,0.3,7.2,0.8c2.4,0.6,4.6,1.3,6.7,2.3l-3,7.1c-1.7-0.8-3.5-1.5-5.3-2.1C1072.4,75.6,1070.5,75.3,1068.6,75.3z"/>
		<path class="st1" d="M1129.7,117.1h-8.7V95.6h-21.3v21.5h-8.7V68.6h8.7v19.5h21.3V68.6h8.7V117.1z"/>
		<path class="st1" d="M1185.6,92.8c0,3.8-0.5,7.2-1.4,10.2c-0.9,3.1-2.3,5.7-4.2,7.9c-1.9,2.2-4.2,3.9-7.1,5.1
			c-2.9,1.2-6.2,1.8-10.1,1.8c-3.9,0-7.3-0.6-10.1-1.8c-2.9-1.2-5.2-2.9-7.1-5.1c-1.9-2.2-3.2-4.8-4.2-7.9
			c-0.9-3.1-1.4-6.5-1.4-10.2c0-5,0.8-9.4,2.5-13.1c1.7-3.7,4.2-6.6,7.5-8.6c3.4-2.1,7.7-3.1,12.9-3.1c5.1,0,9.3,1,12.7,3.1
			c3.3,2.1,5.9,5,7.5,8.7C1184.8,83.4,1185.6,87.8,1185.6,92.8z M1149.2,92.8c0,3.7,0.5,6.8,1.5,9.4c1,2.6,2.5,4.6,4.5,6
			c2,1.4,4.6,2.1,7.7,2.1c3.2,0,5.8-0.7,7.8-2.1c2-1.4,3.5-3.4,4.4-6c0.9-2.6,1.4-5.8,1.4-9.4c0-5.5-1.1-9.8-3.2-12.9
			c-2.1-3.1-5.6-4.7-10.4-4.7c-3.2,0-5.8,0.7-7.8,2.1c-2,1.4-3.5,3.4-4.5,6C1149.7,86,1149.2,89.1,1149.2,92.8z"/>
		<path class="st1" d="M1239.2,92.8c0,3.8-0.5,7.2-1.4,10.2c-0.9,3.1-2.3,5.7-4.2,7.9c-1.9,2.2-4.2,3.9-7.1,5.1
			c-2.9,1.2-6.2,1.8-10.1,1.8c-3.9,0-7.3-0.6-10.1-1.8c-2.9-1.2-5.2-2.9-7.1-5.1c-1.9-2.2-3.2-4.8-4.2-7.9
			c-0.9-3.1-1.4-6.5-1.4-10.2c0-5,0.8-9.4,2.5-13.1c1.7-3.7,4.2-6.6,7.5-8.6c3.4-2.1,7.7-3.1,12.9-3.1c5.1,0,9.3,1,12.7,3.1
			c3.3,2.1,5.9,5,7.5,8.7C1238.3,83.4,1239.2,87.8,1239.2,92.8z M1202.8,92.8c0,3.7,0.5,6.8,1.5,9.4c1,2.6,2.5,4.6,4.5,6
			c2,1.4,4.6,2.1,7.7,2.1c3.2,0,5.8-0.7,7.8-2.1c2-1.4,3.5-3.4,4.4-6c0.9-2.6,1.4-5.8,1.4-9.4c0-5.5-1.1-9.8-3.2-12.9
			c-2.1-3.1-5.6-4.7-10.4-4.7c-3.2,0-5.8,0.7-7.8,2.1c-2,1.4-3.5,3.4-4.5,6C1203.3,86,1202.8,89.1,1202.8,92.8z"/>
		<path class="st1" d="M1249.5,117.1V68.6h8.7v41.1h20.2v7.3H1249.5z"/>
	</g>
	<g>
		<path d="M258.6,177.1c0-7.7,3.4-14.3,9.4-19.1l2.3,2.4c-4.7,4.8-7.2,9.8-7.2,16.7c0,6.9,2.5,11.9,7.2,16.6l-2.3,2.4
			C262,191.4,258.6,184.7,258.6,177.1z"/>
		<path d="M295.1,182.6h-15.7l-2.6,6.1h-4.9l12.9-30.1h4.9l12.9,30.1h-4.9L295.1,182.6z M293.4,178.6l-6.1-14.3l-6.1,14.3H293.4z"/>
		<path d="M311.6,166.1h5.3v3.7h-5.3v19h-4.2v-19h-3.4v-3.7h3.4v-2.7c0-3.6,2.5-6.2,6-6.2c1.6,0,3.3,0.6,4.5,1.6l-1.6,2.9
			c-0.5-0.5-1.4-0.8-2.3-0.8c-1.3,0-2.3,1.1-2.3,2.7V166.1z"/>
		<path d="M326,166.1h5.3v3.7H326v19h-4.2v-19h-3.4v-3.7h3.4v-2.7c0-3.6,2.5-6.2,6-6.2c1.6,0,3.3,0.6,4.5,1.6l-1.6,2.9
			c-0.5-0.5-1.4-0.8-2.3-0.8c-1.3,0-2.3,1.1-2.3,2.7V166.1z"/>
		<path d="M334.1,159.7c0-1.4,1.1-2.6,2.6-2.6c1.4,0,2.6,1.2,2.6,2.6c0,1.4-1.2,2.6-2.6,2.6C335.2,162.3,334.1,161.1,334.1,159.7z
			 M334.5,166.1h4.3v22.6h-4.3V166.1z"/>
		<path d="M343.8,158.1h4.3v30.6h-4.3V158.1z"/>
		<path d="M352.6,159.7c0-1.4,1.1-2.6,2.6-2.6c1.4,0,2.6,1.2,2.6,2.6c0,1.4-1.2,2.6-2.6,2.6C353.7,162.3,352.6,161.1,352.6,159.7z
			 M353,166.1h4.3v22.6H353V166.1z"/>
		<path d="M381.3,175v13.7H377v-3.1c-1.7,2.4-4.8,3.6-7.5,3.6c-4.8,0-8.4-2.8-8.4-7.2c0-4.5,4.1-7.5,9.1-7.5c2.2,0,4.6,0.5,6.8,1.2
			V175c0-2.8-1.3-5.9-5.8-5.9c-2.2,0-4.4,0.9-6.4,1.9l-1.6-3.2c3.2-1.6,6.1-2.3,8.6-2.3C377.9,165.5,381.3,169.4,381.3,175z
			 M377,181.6v-3c-1.8-0.6-3.9-0.9-6.2-0.9c-3,0-5.6,1.7-5.6,4.2s2.2,3.9,5,3.9C373.1,185.8,376.3,184.4,377,181.6z"/>
		<path d="M398.4,187.6c-1.2,1-2.9,1.6-4.5,1.6c-3.5,0-6-2.5-6-6.2v-13.3h-3.4v-3.7h3.4v-6.2h4.2v6.2h5.3v3.7h-5.3v13
			c0,1.6,1.1,2.7,2.3,2.7c1,0,1.8-0.4,2.3-0.8L398.4,187.6z"/>
		<path d="M418.4,182.9l2.7,2.8c-2,2.1-6,3.5-9.2,3.5c-6.3,0-11.7-5-11.7-11.9c0-6.8,5-11.8,11.3-11.8c6.9,0,10.9,5.3,10.9,13.4
			h-17.8c0.6,3.8,3.3,6.5,7.2,6.5C414.3,185.4,417,184.3,418.4,182.9z M404.7,175.4h13.6c-0.5-3.5-2.6-6-6.5-6
			C408.3,169.4,405.4,171.7,404.7,175.4z"/>
		<path d="M447.9,158.1v30.6h-4.3v-3.9c-1.8,2.8-4.6,4.5-8.1,4.5c-6,0-10.4-4.9-10.4-11.9c0-6.9,4.5-11.8,10.4-11.8
			c3.5,0,6.3,1.7,8.1,4.4v-11.9H447.9z M443.7,177.4c0-4.7-2.9-8.1-7-8.1c-4.2,0-7.1,3.3-7.1,8.1c0,4.7,2.9,8.1,7.1,8.1
			C440.7,185.5,443.7,182.1,443.7,177.4z"/>
		<path d="M476.6,187.6c-1.2,1-2.9,1.6-4.5,1.6c-3.5,0-6-2.5-6-6.2v-13.3h-3.4v-3.7h3.4v-6.2h4.2v6.2h5.3v3.7h-5.3v13
			c0,1.6,1.1,2.7,2.3,2.7c1,0,1.8-0.4,2.3-0.8L476.6,187.6z"/>
		<path d="M478.4,177.4c0-6.4,5.5-11.8,12-11.8c6.4,0,11.9,5.4,11.9,11.8c0,6.4-5.4,11.9-11.9,11.9
			C483.9,189.2,478.4,183.8,478.4,177.4z M497.9,177.4c0-4.4-3.5-8.1-7.5-8.1c-4.2,0-7.6,3.7-7.6,8.1c0,4.4,3.5,8.1,7.6,8.1
			C494.5,185.5,497.9,181.8,497.9,177.4z"/>
		<path d="M516.2,173.6c0-8.5,7.2-15.6,15.6-15.6c4.3,0,8.2,1.8,11.1,4.7l-3.1,3c-2-2.2-4.9-3.6-8-3.6c-6,0-11.1,5.3-11.1,11.5
			c0,6.3,5.1,11.5,11.1,11.5c3.1,0,6-1.4,8-3.6l3.1,3c-2.8,2.9-6.8,4.7-11.1,4.7C523.4,189.2,516.2,182.1,516.2,173.6z"/>
		<path d="M546.6,158.6h14.3c5,0,8.6,3.1,8.6,7.5c0,3.2-1.6,5.1-4.3,6.7c3.5,1.7,5.5,4.4,5.5,7.8c0,4.8-3.9,8.2-9.2,8.2h-14.9V158.6
			z M559.8,171.1c3,0,5.2-1.8,5.2-4.3s-2.1-4.3-5.2-4.3H551v8.6H559.8z M560.4,184.8c3.4,0,5.7-2.1,5.7-5c0-2.9-2.4-5-5.7-5H551v9.9
			H560.4z"/>
		<path d="M573.3,184.4l2.7-3.3c2.7,2.5,5.8,4.2,9.9,4.2c4.2,0,6.3-2.2,6.3-4.6c0-2.8-2.5-3.9-7.5-5.1c-6.1-1.4-10.2-3.3-10.2-8.7
			c0-5,4.4-8.8,10.4-8.8c4.6,0,8.1,1.7,11,4.2l-2.5,3.3c-2.5-2.3-5.6-3.7-8.6-3.7c-3.4,0-5.7,2.1-5.7,4.6c0,2.8,2.6,3.8,7.5,5
			c6,1.4,10.2,3.4,10.2,8.8c0,5.1-3.9,8.9-11,8.9C580.6,189.2,576.5,187.4,573.3,184.4z"/>
		<path d="M605.2,162.7v8.6h15.9v4.1h-15.9v9.2h17.7v4.1h-22.1v-30.1h22.1v4.1H605.2z"/>
		<path d="M638.9,158.6h10.4c9.7,0,16.6,6.2,16.6,15c0,8.8-6.9,15.1-16.6,15.1h-10.4V158.6z M649.5,184.7c7,0,11.8-4.6,11.8-11
			c0-6.4-4.9-11-11.8-11h-6.2v22H649.5z"/>
		<path d="M687.1,182.9l2.7,2.8c-2,2.1-6,3.5-9.2,3.5c-6.3,0-11.7-5-11.7-11.9c0-6.8,5-11.8,11.3-11.8c6.9,0,10.9,5.3,10.9,13.4
			h-17.8c0.6,3.8,3.3,6.5,7.2,6.5C683,185.4,685.8,184.3,687.1,182.9z M673.5,175.4H687c-0.5-3.5-2.6-6-6.5-6
			C677,169.4,674.2,171.7,673.5,175.4z"/>
		<path d="M695,158.1h4.3v30.6H695V158.1z"/>
		<path d="M724.3,174.3v14.4H720V175c0-3.4-2.1-5.7-5.2-5.7c-3.4,0-6.3,2.4-6.3,5.3v14.1h-4.3v-30.6h4.3v11.3
			c1.4-2.3,4.1-3.9,7.2-3.9C720.8,165.5,724.3,169.2,724.3,174.3z"/>
		<path d="M728.7,159.7c0-1.4,1.1-2.6,2.6-2.6c1.4,0,2.6,1.2,2.6,2.6c0,1.4-1.2,2.6-2.6,2.6C729.8,162.3,728.7,161.1,728.7,159.7z
			 M729.1,166.1h4.3v22.6h-4.3V166.1z"/>
		<path d="M750.3,158.6h4.4l17.3,22.8v-22.8h4.4v30.1H772l-17.3-22.8v22.8h-4.4V158.6z"/>
		<path d="M780.9,177.4c0-6.4,5.5-11.8,12-11.8c6.4,0,11.9,5.4,11.9,11.8c0,6.4-5.4,11.9-11.9,11.9
			C786.3,189.2,780.9,183.8,780.9,177.4z M800.4,177.4c0-4.4-3.5-8.1-7.5-8.1c-4.2,0-7.6,3.7-7.6,8.1c0,4.4,3.5,8.1,7.6,8.1
			C796.9,185.5,800.4,181.8,800.4,177.4z"/>
		<path d="M808.3,168.9c0-1.5,1.3-2.8,2.9-2.8c1.6,0,2.8,1.4,2.8,2.8c0,1.6-1.3,3-2.8,3C809.5,171.8,808.3,170.5,808.3,168.9z
			 M808.3,186.2c0-1.5,1.3-2.8,2.9-2.8c1.6,0,2.8,1.4,2.8,2.8c0,1.6-1.3,3-2.8,3C809.5,189.2,808.3,187.9,808.3,186.2z"/>
		<path d="M840.8,173.2c0,9.1-5.4,16-12.7,16c-3.7,0-6.4-1.4-8.8-3.5l2.3-3.4c1.9,1.7,3.8,2.9,6.5,2.9c4.6,0,8.1-5,8.2-11.6
			c-1.8,2.5-4.9,4-8.2,4c-5.5,0-10.1-3.5-10.1-9.4c0-5.8,4.6-10.1,10.9-10.1C837.3,158.1,840.8,164.6,840.8,173.2z M836,169
			c-0.8-4.3-2.9-7.2-6.9-7.2c-4.1,0-6.5,3.1-6.5,6.1c0,3.7,2.9,5.9,6.6,5.9C832.5,173.9,835.2,172,836,169z"/>
		<path d="M843.4,184.1l2.8-2.9c2,2.5,5,4.1,8.4,4.1c3.9,0,6.4-2.1,6.4-5.1c0-3.1-2.6-4.7-7.1-4.7h-3.3v-3.9l3.3,0
			c3.8,0,6.5-1.7,6.5-4.7c0-2.8-2.6-4.8-6.1-4.8c-3.2,0-5.5,1.6-7.6,4l-2.8-2.7c2.3-3,5.7-5.3,10.6-5.3c6.1,0,10.3,3.4,10.3,8.2
			c0,3.7-2.6,6-5.8,7c3.2,0.7,6.4,3,6.4,7.2c0,5.1-4.3,8.8-10.9,8.8C849.6,189.2,845.7,187,843.4,184.1z"/>
		<path d="M868.9,173.6c0-9.1,5.3-15.6,12.9-15.6c7.5,0,12.8,6.4,12.8,15.6c0,9.2-5.3,15.6-12.8,15.6
			C874.2,189.2,868.9,182.8,868.9,173.6z M890.1,173.6c0-6.7-3.4-11.5-8.3-11.5c-4.9,0-8.4,4.7-8.4,11.5c0,6.7,3.5,11.5,8.4,11.5
			C886.7,185.2,890.1,180.4,890.1,173.6z"/>
		<path d="M920.9,173.2c0,9.1-5.4,16-12.7,16c-3.7,0-6.4-1.4-8.8-3.5l2.3-3.4c1.9,1.7,3.8,2.9,6.5,2.9c4.6,0,8.1-5,8.2-11.6
			c-1.8,2.5-4.9,4-8.2,4c-5.5,0-10.1-3.5-10.1-9.4c0-5.8,4.6-10.1,10.9-10.1C917.4,158.1,920.9,164.6,920.9,173.2z M916.1,169
			c-0.8-4.3-2.9-7.2-6.9-7.2c-4.1,0-6.5,3.1-6.5,6.1c0,3.7,2.9,5.9,6.6,5.9C912.6,173.9,915.3,172,916.1,169z"/>
		<path d="M947.2,179.1c0,5.8-4.6,10.1-10.9,10.1c-8.4,0-11.9-6.5-11.9-15.1c0-9.1,5.4-16,12.7-16c3.7,0,6.4,1.4,8.8,3.5l-2.3,3.4
			c-1.9-1.7-3.8-2.9-6.5-2.9c-4.6,0-8.1,5-8.2,11.6c1.8-2.5,4.9-4,8.2-4C942.6,169.7,947.2,173.1,947.2,179.1z M942.6,179.3
			c0-3.7-2.9-5.9-6.6-5.9c-3.3,0-6,1.9-6.8,4.9c0.8,4.3,2.9,7.2,6.9,7.2C940.2,185.5,942.6,182.3,942.6,179.3z"/>
		<path d="M949.8,184.1l2.8-2.9c2,2.5,5,4.1,8.4,4.1c3.9,0,6.4-2.1,6.4-5.1c0-3.1-2.6-4.7-7.1-4.7h-3.3v-3.9l3.3,0
			c3.8,0,6.5-1.7,6.5-4.7c0-2.8-2.6-4.8-6.1-4.8c-3.2,0-5.5,1.6-7.6,4l-2.8-2.7c2.3-3,5.7-5.3,10.6-5.3c6.1,0,10.3,3.4,10.3,8.2
			c0,3.7-2.6,6-5.8,7c3.2,0.7,6.4,3,6.4,7.2c0,5.1-4.3,8.8-10.9,8.8C956,189.2,952.1,187,949.8,184.1z"/>
		<path d="M974.8,193.7c4.7-4.8,7.2-9.8,7.2-16.6c0-6.9-2.5-11.9-7.2-16.7l2.3-2.4c6,4.8,9.4,11.4,9.4,19.1c0,7.6-3.4,14.3-9.4,19.1
			L974.8,193.7z"/>
		<path d="M1000.5,184.4l2.7-3.3c2.7,2.5,5.8,4.2,9.9,4.2c4.2,0,6.3-2.2,6.3-4.6c0-2.8-2.5-3.9-7.5-5.1c-6.1-1.4-10.2-3.3-10.2-8.7
			c0-5,4.4-8.8,10.4-8.8c4.6,0,8.1,1.7,11,4.2l-2.5,3.3c-2.5-2.3-5.6-3.7-8.6-3.7c-3.4,0-5.7,2.1-5.7,4.6c0,2.8,2.6,3.8,7.5,5
			c6,1.4,10.2,3.4,10.2,8.8c0,5.1-3.9,8.9-11,8.9C1007.9,189.2,1003.7,187.4,1000.5,184.4z"/>
		<path d="M1028,158.6h4.4v30.1h-4.4V158.6z"/>
		<path d="M1038.3,158.6h4.4l17.3,22.8v-22.8h4.4v30.1h-4.4l-17.3-22.8v22.8h-4.4V158.6z"/>
		<path d="M1069,173.6c0-8.5,7.2-15.6,15.6-15.6c4.3,0,8.2,1.8,11.1,4.7l-3.1,3c-2-2.2-4.9-3.6-8-3.6c-6,0-11.1,5.3-11.1,11.5
			c0,6.3,5.1,11.5,11.1,11.5c3.1,0,6-1.4,8-3.6l3.1,3c-2.8,2.9-6.8,4.7-11.1,4.7C1076.2,189.2,1069,182.1,1069,173.6z"/>
		<path d="M1103.4,162.7v8.6h15.9v4.1h-15.9v9.2h17.7v4.1h-22.1v-30.1h22.1v4.1H1103.4z"/>
		<path d="M1135.3,185.1l11-9.1c4-3.4,5.6-6,5.6-8.7c0-3.3-2.7-5.2-5.7-5.2c-3.3,0-5.7,1.8-7.8,4.5l-3-2.6c2.6-3.6,6.2-5.8,11-5.8
			c5.6,0,10.1,3.6,10.1,9.1c0,4-1.9,7.2-7.1,11.4l-7.1,6h14.4v4.1h-21.4V185.1z"/>
		<path d="M1160.4,173.6c0-9.1,5.3-15.6,12.9-15.6c7.5,0,12.8,6.4,12.8,15.6c0,9.2-5.3,15.6-12.8,15.6
			C1165.7,189.2,1160.4,182.8,1160.4,173.6z M1181.5,173.6c0-6.7-3.4-11.5-8.3-11.5c-4.9,0-8.4,4.7-8.4,11.5
			c0,6.7,3.5,11.5,8.4,11.5C1178.1,185.2,1181.5,180.4,1181.5,173.6z"/>
		<path d="M1189.5,173.6c0-9.1,5.3-15.6,12.9-15.6c7.5,0,12.8,6.4,12.8,15.6c0,9.2-5.3,15.6-12.8,15.6
			C1194.8,189.2,1189.5,182.8,1189.5,173.6z M1210.7,173.6c0-6.7-3.4-11.5-8.3-11.5c-4.9,0-8.4,4.7-8.4,11.5
			c0,6.7,3.5,11.5,8.4,11.5C1207.2,185.2,1210.7,180.4,1210.7,173.6z"/>
		<path d="M1218.4,184.5l2.8-3.2c2.3,2.4,5.1,4,8.3,4c3.9,0,6.5-2.6,6.5-6c0-3.5-2.7-5.8-6.6-5.8c-2.5,0-4.6,0.8-6.4,2.2l-3.1-1.4
			l0.4-15.7h18.5v4.1h-14.3l-0.3,8.9c1.6-1.1,3.6-1.9,6.3-1.9c5.4,0,9.9,3.4,9.9,9.4c0,6.1-4.6,10.1-11.1,10.1
			C1224.6,189.2,1221,187.3,1218.4,184.5z"/>
	</g>
</g>
</svg>
