<?xml version="1.0" encoding="UTF-8"?>
<svg id="Artwork" xmlns="http://www.w3.org/2000/svg" width="542" height="104" version="1.1" viewBox="0 0 542 104">
  <defs>
    <style>
      .cls-1 {
        fill: #000;
        stroke-width: 0px;
      }
    </style>
  </defs>
  <g>
    <g>
      <path class="cls-1" d="M118.452,101.969l-22.936-75.391h12.644l16.562,58.045h.104l18.652-58.045h11.39l18.809,58.776h.104l18.809-58.776h11.442l18.651,58.045h.104l16.562-58.045h12.643l-22.883,75.391h-11.703l-19.018-57.209h-.104l-18.965,57.209h-11.076l-19.07-57.209h-.104l-19.018,57.209h-11.599Z"/>
      <path class="cls-1" d="M256.585,101.969V26.578h32.862c8.116,0,15.029,1.48,20.742,4.44,5.712,2.961,10.084,7.228,13.113,12.8,3.031,5.573,4.546,12.33,4.546,20.271v.105c0,7.906-1.515,14.689-4.546,20.35-3.029,5.66-7.401,9.979-13.113,12.957-5.713,2.978-12.626,4.467-20.742,4.467h-32.862ZM268.706,91.676h19.854c5.781,0,10.666-1.053,14.655-3.16,3.987-2.107,7.027-5.199,9.117-9.273,2.09-4.076,3.135-9.057,3.135-14.943v-.104c0-5.887-1.037-10.858-3.109-14.917-2.072-4.057-5.111-7.14-9.117-9.247-4.005-2.107-8.899-3.161-14.681-3.161h-19.854v54.806Z"/>
      <path class="cls-1" d="M509.801,103.327c-5.887,0-11.076-.923-15.569-2.769-4.493-1.847-8.072-4.424-10.736-7.732-2.665-3.31-4.276-7.105-4.833-11.391l-.052-.627h11.755l.052.471c.523,2.369,1.638,4.476,3.344,6.322,1.707,1.846,3.937,3.283,6.688,4.31,2.752,1.028,5.887,1.542,9.404,1.542,3.937,0,7.35-.662,10.24-1.986,2.892-1.323,5.138-3.187,6.74-5.59,1.602-2.403,2.403-5.207,2.403-8.412v-.104c0-3.135-.818-5.878-2.456-8.229-1.637-2.351-3.892-4.171-6.766-5.46-2.873-1.288-6.261-1.933-10.162-1.933-3.204,0-6.112.392-8.725,1.176-2.612.783-4.877,1.941-6.792,3.474-.697.558-1.351,1.176-1.959,1.855-.61.679-1.142,1.402-1.594,2.168h-10.867l4.075-43.834h52.664v10.031h-42.842l-2.455,24.033h.209c1.428-1.812,3.194-3.318,5.303-4.52,2.106-1.202,4.484-2.116,7.131-2.743,2.647-.627,5.539-.94,8.674-.94,5.607,0,10.544,1.045,14.812,3.135,4.266,2.09,7.602,4.998,10.005,8.725,2.403,3.728,3.605,8.047,3.605,12.957v.105c0,5.154-1.315,9.691-3.945,13.609-2.63,3.919-6.287,6.958-10.972,9.117s-10.145,3.239-16.379,3.239Z"/>
    </g>
    <g>
      <path class="cls-1" d="M62.649,25.333c-8.403-.622-15.532,4.694-19.51,4.694-4.035,0-10.257-4.56-16.854-4.435-8.662.127-16.646,5.041-21.113,12.797-8.997,15.617-2.297,38.758,6.467,51.431,4.287,6.192,9.4,13.17,16.115,12.916,6.464-.254,8.91-4.181,16.723-4.181s10.012,4.181,16.847,4.056c6.958-.129,11.366-6.321,15.621-12.547,4.924-7.187,6.948-14.147,7.068-14.514-.154-.058-13.562-5.203-13.696-20.651-.121-12.916,10.542-19.124,11.027-19.423-6.053-8.915-15.402-9.898-18.695-10.142Z"/>
      <path class="cls-1" d="M57.464,16.967c3.569-4.313,5.97-10.32,5.309-16.295-5.136.204-11.349,3.421-15.033,7.732-3.299,3.818-6.197,9.934-5.41,15.787,5.725.442,11.568-2.908,15.134-7.224Z"/>
    </g>
  </g>
  <path class="cls-1" d="M351.701,98.493c-5.922-3.187-10.501-7.697-13.74-13.531-3.239-5.834-4.859-12.739-4.859-20.716v-.051c0-7.977,1.62-14.873,4.859-20.689,3.239-5.817,7.828-10.311,13.768-13.48,5.937-3.169,12.965-4.754,21.08-4.754,6.478,0,12.295,1.098,17.451,3.291,5.154,2.195,9.395,5.277,12.721,9.248,3.186,4.024,4.983,7.476,6.127,12.809l.104.521h-12.332l-.283-.828c-1.32-3.426-2.361-4.951-4.431-7.305-2.177-2.315-4.894-4.092-8.15-5.329-3.257-1.235-6.992-1.854-11.207-1.854-5.607,0-10.44,1.158-14.498,3.475s-7.192,5.59-9.404,9.822c-2.212,4.231-3.317,9.256-3.317,15.073v.052c0,5.782,1.114,10.807,3.344,15.073,2.229,4.267,5.372,7.567,9.431,9.9,4.057,2.334,8.873,3.5,14.445,3.5,4.145,0,7.846-.617,11.103-1.854,3.256-1.235,5.998-3.073,8.229-5.512,2.229-2.437,3.9-5.398,5.016-8.882l.104-.418h12.172l-.104.522c-.94,5.399-3.065,10.093-6.374,14.08-3.31,3.989-7.541,7.089-12.695,9.3-5.156,2.212-10.973,3.318-17.451,3.318-8.152,0-15.187-1.593-21.109-4.781Z"/>
  <path class="cls-1" d="M433.215,91.99v-.231l21.316-17.115c4.807-4.006,8.576-7.498,11.311-10.476,2.734-2.979,4.678-5.765,5.826-8.359,1.15-2.595,1.725-5.373,1.725-8.333v-.105c0-4.389-1.176-8.245-3.527-11.572-2.352-3.325-5.65-5.921-9.9-7.784s-9.23-2.796-14.941-2.796c-5.818,0-10.981,1.02-15.492,3.057-4.511,2.038-8.09,4.895-10.736,8.568-3.209,4.451-4.172,8.743-4.322,13.879v.418h11.424l.052-.522c.244-2.855.618-5.493,2.878-8.655,1.602-2.176,3.796-3.866,6.583-5.067,2.786-1.202,5.991-1.803,9.614-1.803,3.309,0,6.182.531,8.619,1.594s4.328,2.552,5.67,4.467c1.34,1.916,2.012,4.162,2.012,6.74v.104c0,2.021-.375,3.911-1.125,5.669-.748,1.76-2.115,3.701-4.1,5.825-1.986,2.125-4.807,4.721-8.465,7.785l-32.81,26.541v8.15h60.135v-9.979h-41.747Z"/>
</svg>